# Blender v2.79 (sub 0) OBJ File: 'Coffeeshop.blend'
# www.blender.org
mtllib fancycoffeemachine.mtl
o Cube.122_Cube.129
v -0.189573 -0.189573 0.189573
v -0.189573 0.189573 0.189573
v -0.189573 -0.189573 -0.189573
v -0.189573 0.189573 -0.189573
v 0.189573 -0.189573 0.189573
v 0.189573 0.189573 0.189573
v 0.189573 -0.189573 -0.189573
v 0.189573 0.189573 -0.189573
v -0.189573 -0.189573 -0.063191
v -0.189573 -0.189573 0.063191
v -0.203205 0.189573 0.063191
v -0.203205 0.189573 -0.063191
v 0.189573 -0.189573 0.063191
v 0.189573 -0.189573 -0.063191
v 0.189573 0.189573 -0.063191
v 0.189573 0.189573 0.063191
v -0.189573 -0.063191 0.189573
v -0.189573 0.063191 0.189573
v -0.189573 0.063191 -0.189573
v -0.189573 -0.063191 -0.189573
v 0.189573 0.063191 -0.189573
v 0.189573 -0.063191 -0.189573
v 0.189573 0.063191 0.189573
v 0.189573 -0.063191 0.189573
v 0.189573 0.063191 -0.063191
v 0.189573 -0.063191 -0.063191
v 0.189573 0.063191 0.063191
v 0.189573 -0.063191 0.063191
v -0.203205 0.063191 0.063191
v -0.203205 -0.063191 0.063191
v -0.203205 0.063191 -0.063191
v -0.203205 -0.063191 -0.063191
v -0.189573 -0.077926 -0.189573
v 0.189573 -0.077926 -0.189573
v 0.189573 -0.077926 0.189573
v 0.189573 -0.077926 -0.063191
v 0.189573 -0.077926 0.063191
v -0.201616 -0.077926 0.063191
v -0.201616 -0.077926 -0.063191
v -0.189573 -0.077926 0.189573
v -0.278488 -0.077926 0.189573
v -0.278488 -0.063191 0.189573
v -0.292121 -0.063191 0.063191
v -0.292121 -0.063191 -0.063191
v -0.278488 -0.063191 -0.189573
v -0.278488 -0.077926 -0.189573
v -0.290531 -0.077926 0.063191
v -0.290531 -0.077926 -0.063191
v -0.279980 -0.077926 -0.063191
v -0.279980 -0.077926 0.063191
v -0.267937 -0.077926 -0.189573
v -0.267937 -0.063191 -0.189573
v -0.281570 -0.063191 -0.063191
v -0.267937 -0.077926 0.189573
v -0.267937 -0.063191 0.189573
v -0.281570 -0.063191 0.063191
v -0.260067 -0.190995 -0.063191
v -0.260067 -0.190995 0.063191
v -0.163569 -0.189573 -0.189573
v -0.163569 0.189573 -0.189573
v -0.163569 -0.189573 0.189573
v -0.163569 0.189573 0.189573
v -0.176267 0.189573 -0.063191
v -0.176267 0.189573 0.063191
v -0.163569 -0.189573 -0.063191
v -0.163569 -0.189573 0.063191
v -0.163569 -0.063191 0.189573
v -0.163569 0.063191 0.189573
v -0.163569 -0.063191 -0.189573
v -0.163569 0.063191 -0.189573
v -0.163569 -0.077926 -0.189573
v -0.163569 -0.077926 0.189573
v -0.043815 0.189573 -0.189573
v -0.043815 -0.189573 0.189573
v -0.052207 0.189573 -0.063191
v -0.052207 0.189573 0.063191
v -0.043815 -0.063191 -0.189573
v -0.043815 0.063191 -0.189573
v -0.043815 -0.077926 -0.189573
v -0.043815 -0.189573 -0.189573
v -0.043815 0.189573 0.189573
v -0.043815 -0.189573 -0.063191
v -0.043815 -0.189573 0.063191
v -0.043815 -0.063191 0.189573
v -0.043815 0.063191 0.189573
v -0.043815 -0.077926 0.189573
v -0.163569 0.063191 -0.227309
v -0.163569 -0.063191 -0.227309
v -0.163569 0.189573 -0.227309
v -0.043815 0.189573 -0.227309
v -0.043815 -0.063191 -0.227309
v -0.043815 0.063191 -0.227309
v -0.189573 0.130672 0.189573
v -0.189573 0.130672 -0.189573
v 0.189573 0.130672 -0.189573
v 0.189573 0.130672 0.189573
v 0.189573 0.130672 -0.063191
v 0.189573 0.130672 0.063191
v -0.203205 0.130672 0.063191
v -0.203205 0.130672 -0.063191
v -0.163569 0.130672 0.189573
v -0.163569 0.130672 -0.189573
v -0.043815 0.130672 0.189573
v -0.043815 0.130672 -0.189573
v -0.163569 0.130672 -0.227309
v -0.043815 0.130672 -0.227309
v -0.189573 -0.189573 0.044384
v -0.203205 0.189573 0.044384
v 0.189573 -0.189573 0.044384
v 0.189573 0.189573 0.044384
v -0.203205 -0.063191 0.044384
v -0.203205 0.063191 0.044384
v 0.189573 -0.063191 0.044384
v 0.189573 0.063191 0.044384
v 0.189573 -0.077926 0.044384
v -0.292121 -0.063191 0.044384
v -0.290531 -0.077926 0.044384
v -0.281570 -0.063191 0.044384
v -0.260067 -0.190995 0.044384
v -0.163569 -0.189573 0.044384
v -0.176267 0.189573 0.044384
v -0.052207 0.189573 0.044384
v -0.043815 -0.189573 0.044384
v -0.203205 0.130672 0.044384
v 0.189573 0.130672 0.044384
v -0.203205 0.189573 -0.043382
v 0.189573 -0.189573 -0.043382
v -0.203205 -0.063191 -0.043382
v -0.203205 0.063191 -0.043382
v -0.292121 -0.063191 -0.043382
v -0.290531 -0.077926 -0.043382
v -0.203205 0.130672 -0.043382
v -0.189573 -0.189573 -0.043382
v 0.189573 0.189573 -0.043382
v 0.189573 -0.063191 -0.043382
v 0.189573 0.063191 -0.043382
v 0.189573 -0.077926 -0.043382
v -0.281570 -0.063191 -0.043382
v -0.260067 -0.190995 -0.043382
v -0.163569 -0.189573 -0.043382
v -0.176267 0.189573 -0.043382
v -0.052207 0.189573 -0.043382
v -0.043815 -0.189573 -0.043382
v 0.189573 0.130672 -0.043382
v -0.163569 -0.076486 -0.189573
v -0.043815 -0.076486 -0.189573
v -0.043815 -0.076486 -0.227309
v -0.163569 -0.076486 -0.227309
v -0.209909 -0.012516 0.096904
v -0.209909 0.080997 0.096904
v -0.209909 -0.012516 0.009138
v -0.209909 0.080997 0.009138
v -0.227496 0.080997 0.096904
v -0.227496 -0.012516 0.096904
v -0.227496 -0.012516 0.009138
v -0.227496 0.080997 0.009138
v -0.237539 0.034241 0.015631
v -0.246086 0.034241 0.019172
v -0.249627 0.034241 0.027719
v -0.246086 0.034241 0.036266
v -0.237539 0.034241 0.039806
v -0.228992 0.034241 0.036266
v -0.225451 0.034241 0.027719
v -0.228992 0.034241 0.019172
v -0.238558 0.025616 0.017585
v -0.245910 0.025616 0.020631
v -0.248955 0.025616 0.027983
v -0.245910 0.025616 0.035335
v -0.238558 0.025616 0.038380
v -0.231206 0.025616 0.035335
v -0.228161 0.025616 0.027983
v -0.231206 0.025616 0.020631
v -0.237539 0.069737 0.015631
v -0.246086 0.069737 0.019172
v -0.249627 0.069737 0.027719
v -0.246086 0.069737 0.036266
v -0.237539 0.069737 0.039806
v -0.228992 0.069737 0.036266
v -0.225451 0.069737 0.027719
v -0.228992 0.069737 0.019172
v -0.230187 0.034241 0.020367
v -0.227142 0.034241 0.027719
v -0.230187 0.034241 0.035071
v -0.237539 0.034241 0.038116
v -0.244891 0.034241 0.035071
v -0.247936 0.034241 0.027719
v -0.244891 0.034241 0.020367
v -0.237539 0.034241 0.017321
v -0.238558 0.025616 0.020802
v -0.243635 0.025616 0.022906
v -0.245738 0.025616 0.027983
v -0.243635 0.025616 0.033060
v -0.238558 0.025616 0.035163
v -0.233481 0.025616 0.033060
v -0.231378 0.025616 0.027983
v -0.233481 0.025616 0.022906
v -0.238558 0.020139 0.020802
v -0.243635 0.020139 0.022906
v -0.245738 0.020139 0.027983
v -0.243635 0.020139 0.033060
v -0.238558 0.020139 0.035163
v -0.233481 0.020139 0.033060
v -0.231378 0.020139 0.027983
v -0.233481 0.020139 0.022906
v -0.237539 0.034241 0.063798
v -0.246086 0.034241 0.067338
v -0.249627 0.034241 0.075885
v -0.246086 0.034241 0.084432
v -0.237539 0.034241 0.087973
v -0.228992 0.034241 0.084432
v -0.225451 0.034241 0.075885
v -0.228992 0.034241 0.067338
v -0.238558 0.025616 0.065752
v -0.245910 0.025616 0.068797
v -0.248955 0.025616 0.076149
v -0.245910 0.025616 0.083501
v -0.238558 0.025616 0.086546
v -0.231206 0.025616 0.083501
v -0.228161 0.025616 0.076149
v -0.231206 0.025616 0.068797
v -0.237539 0.069737 0.063798
v -0.246086 0.069737 0.067338
v -0.249627 0.069737 0.075885
v -0.246086 0.069737 0.084432
v -0.237539 0.069737 0.087973
v -0.228992 0.069737 0.084432
v -0.225451 0.069737 0.075885
v -0.228992 0.069737 0.067338
v -0.230187 0.034241 0.068533
v -0.227142 0.034241 0.075885
v -0.230187 0.034241 0.083237
v -0.237539 0.034241 0.086283
v -0.244891 0.034241 0.083237
v -0.247936 0.034241 0.075885
v -0.244891 0.034241 0.068533
v -0.237539 0.034241 0.065488
v -0.238558 0.025616 0.068969
v -0.243635 0.025616 0.071072
v -0.245738 0.025616 0.076149
v -0.243635 0.025616 0.081226
v -0.238558 0.025616 0.083329
v -0.233481 0.025616 0.081226
v -0.231378 0.025616 0.076149
v -0.233481 0.025616 0.071072
v -0.238558 0.020139 0.068969
v -0.243635 0.020139 0.071072
v -0.245738 0.020139 0.076149
v -0.243635 0.020139 0.081226
v -0.238558 0.020139 0.083329
v -0.233481 0.020139 0.081226
v -0.231378 0.020139 0.076149
v -0.233481 0.020139 0.071072
v 0.112501 0.188890 0.087372
v 0.085777 0.188890 0.098441
v 0.074708 0.188890 0.125165
v 0.085777 0.188890 0.151888
v 0.112501 0.188890 0.162957
v 0.139224 0.188890 0.151888
v 0.150294 0.188890 0.125165
v 0.139224 0.188890 0.098441
v 0.112501 0.237642 0.078559
v 0.079546 0.237642 0.092209
v 0.065895 0.237642 0.125165
v 0.079546 0.237642 0.158120
v 0.112501 0.237642 0.171770
v 0.145456 0.237642 0.158120
v 0.159107 0.237642 0.125165
v 0.145456 0.237642 0.092209
v 0.112501 0.237642 0.076010
v 0.077744 0.237642 0.090407
v 0.063347 0.237642 0.125165
v 0.077744 0.237642 0.159922
v 0.112501 0.237642 0.174319
v 0.147258 0.237642 0.159922
v 0.161655 0.237642 0.125165
v 0.147258 0.237642 0.090407
v 0.112501 0.248201 0.076010
v 0.077744 0.248201 0.090407
v 0.063347 0.248201 0.125165
v 0.077744 0.248201 0.159922
v 0.112501 0.248201 0.174319
v 0.147258 0.248201 0.159922
v 0.161655 0.248201 0.125165
v 0.147258 0.248201 0.090407
v 0.112501 0.193317 0.094235
v 0.090630 0.193317 0.103294
v 0.081571 0.193317 0.125165
v 0.090630 0.193317 0.147035
v 0.112501 0.193317 0.156094
v 0.134372 0.193317 0.147035
v 0.143431 0.193317 0.125165
v 0.134372 0.193317 0.103294
v 0.112501 0.233216 0.087022
v 0.085530 0.233216 0.098194
v 0.074358 0.233216 0.125165
v 0.085530 0.233216 0.152135
v 0.112501 0.233216 0.163307
v 0.139472 0.233216 0.152135
v 0.150644 0.233216 0.125165
v 0.139472 0.233216 0.098194
v 0.112501 0.188890 -0.028380
v 0.085777 0.188890 -0.017310
v 0.074708 0.188890 0.009413
v 0.085777 0.188890 0.036136
v 0.112501 0.188890 0.047206
v 0.139224 0.188890 0.036136
v 0.150294 0.188890 0.009413
v 0.139224 0.188890 -0.017310
v 0.112501 0.237642 -0.037193
v 0.079546 0.237642 -0.023542
v 0.065895 0.237642 0.009413
v 0.079546 0.237642 0.042368
v 0.112501 0.237642 0.056019
v 0.145456 0.237642 0.042368
v 0.159107 0.237642 0.009413
v 0.145456 0.237642 -0.023542
v 0.112501 0.237642 -0.039741
v 0.077744 0.237642 -0.025344
v 0.063347 0.237642 0.009413
v 0.077744 0.237642 0.044170
v 0.112501 0.237642 0.058567
v 0.147258 0.237642 0.044170
v 0.161655 0.237642 0.009413
v 0.147258 0.237642 -0.025344
v 0.112501 0.248201 -0.039741
v 0.077744 0.248201 -0.025344
v 0.063347 0.248201 0.009413
v 0.077744 0.248201 0.044170
v 0.112501 0.248201 0.058567
v 0.147258 0.248201 0.044170
v 0.161655 0.248201 0.009413
v 0.147258 0.248201 -0.025344
v 0.112501 0.193317 -0.021517
v 0.090630 0.193317 -0.012458
v 0.081571 0.193317 0.009413
v 0.090630 0.193317 0.031284
v 0.112501 0.193317 0.040343
v 0.134372 0.193317 0.031284
v 0.143431 0.193317 0.009413
v 0.134372 0.193317 -0.012458
v 0.112501 0.233216 -0.028730
v 0.085530 0.233216 -0.017558
v 0.074358 0.233216 0.009413
v 0.085530 0.233216 0.036384
v 0.112501 0.233216 0.047556
v 0.139472 0.233216 0.036384
v 0.150644 0.233216 0.009413
v 0.139472 0.233216 -0.017558
vn -0.9985 0.0000 -0.0537
vn -0.7177 0.6952 -0.0386
vn -0.5427 0.5832 -0.6044
vn -0.6681 0.0000 -0.7440
vn 0.7071 0.0000 -0.7071
vn 0.3015 0.9045 -0.3015
vn 0.5773 0.5773 -0.5773
vn 1.0000 0.0000 0.0000
vn 0.7071 0.7071 0.0000
vn 0.5773 0.5773 0.5773
vn 0.7071 0.0000 0.7071
vn 0.0000 0.0000 1.0000
vn 0.0000 0.7071 0.7071
vn -0.5427 0.5832 0.6044
vn -0.6681 0.0000 0.7440
vn 0.0000 -1.0000 0.0000
vn 0.7071 -0.7071 0.0000
vn 0.5773 -0.5773 0.5773
vn 0.0000 -0.7071 0.7071
vn 0.0000 1.0000 0.0000
vn -0.7177 0.6952 0.0386
vn -0.3015 0.9045 -0.3015
vn 0.0000 -0.7071 -0.7071
vn 0.5773 -0.5773 -0.5773
vn -0.9985 0.0000 0.0537
vn -0.2930 0.2746 0.9158
vn -0.6936 0.7194 0.0373
vn -0.6936 0.7194 -0.0373
vn -0.2930 0.2746 -0.9158
vn -0.2912 -0.9098 -0.2955
vn -0.3829 -0.8169 -0.4311
vn -0.2971 -0.2959 -0.9078
vn -0.5573 -0.5888 -0.5853
vn 0.0000 0.0000 -1.0000
vn -0.2971 -0.2959 0.9078
vn -0.5573 -0.5888 0.5853
vn -0.3829 -0.8169 0.4311
vn -0.2912 -0.9098 0.2955
vn -0.2249 -0.9530 0.2030
vn -0.2249 -0.9530 -0.2030
vn -0.7071 0.0000 -0.7071
vn 0.0101 -0.9999 0.0000
vn -1.0000 0.0000 0.0000
vn -0.7071 0.7071 0.0000
vn -0.5773 -0.5773 0.5773
vn -0.5773 0.5773 0.5773
vn -0.5773 0.5773 -0.5773
vn -0.5773 -0.5773 -0.5773
vn 0.0000 0.7071 -0.7071
vn -0.5528 0.5647 -0.6127
vn -0.7448 0.6661 -0.0377
vn -0.5356 -0.6006 -0.5936
vn -0.6880 -0.7248 0.0350
vn -0.6681 -0.7440 0.0000
vn -0.6880 -0.7248 -0.0350
vn -0.7440 0.6681 0.0000
vn -0.5356 -0.6006 0.5936
vn -0.5528 0.5647 0.6127
vn -0.7448 0.6661 0.0377
vn 0.0000 -0.6302 0.7764
vn -0.5490 -0.6302 0.5490
vn -0.4409 -0.7737 0.4548
vn 0.0175 -0.7964 0.6044
vn 0.0000 0.6302 0.7764
vn -0.5490 0.6302 0.5490
vn 0.7764 -0.6302 0.0000
vn 0.5490 -0.6302 0.5490
vn 0.4130 -0.8216 0.3929
vn 0.5497 -0.8353 -0.0039
vn 0.5490 0.6302 0.5490
vn 0.0000 -0.6302 -0.7764
vn 0.5490 -0.6302 -0.5490
vn 0.3976 -0.8323 -0.3863
vn 0.0164 -0.8134 -0.5814
vn 0.7764 0.6302 0.0000
vn -0.5490 -0.6302 -0.5490
vn -0.4246 -0.7872 -0.4473
vn 0.5490 0.6302 -0.5490
vn -0.7764 -0.6302 0.0000
vn -0.6385 -0.7696 -0.0049
vn 0.0000 0.6302 -0.7764
vn -0.5490 0.6302 -0.5490
vn -0.7764 0.6302 0.0000
vn -0.5764 -0.6059 -0.5484
vn -0.8106 -0.5855 0.0057
vn 0.5174 -0.6688 -0.5338
vn -0.0222 -0.6403 -0.7678
vn 0.7389 -0.6738 0.0057
vn -0.5790 -0.5902 0.5625
vn -0.0222 -0.6174 0.7863
vn 0.5218 -0.6522 0.5498
vn 0.0000 -0.8042 0.5943
vn 0.4203 -0.8042 0.4203
vn -0.5943 -0.8042 0.0000
vn -0.4203 -0.8042 0.4203
vn 0.0000 -0.8042 -0.5943
vn -0.4203 -0.8042 -0.4203
vn 0.4203 -0.8042 -0.4203
vn 0.5943 -0.8042 0.0000
vn -0.5147 -0.6260 0.5859
vn -0.5147 -0.6260 -0.5859
vn -0.6351 -0.7724 0.0000
vn -0.6351 -0.7725 0.0000
vn 0.0000 -0.8502 -0.5265
vn 0.3723 -0.8502 -0.3723
vn 0.5265 -0.8502 0.0000
vn 0.3723 -0.8502 0.3723
vn 0.0000 -0.8502 0.5265
vn -0.3723 -0.8502 0.3723
vn -0.5265 -0.8502 0.0000
vn -0.3723 -0.8502 -0.3723
vn 0.6958 -0.1779 0.6958
vn 0.0000 -0.1779 0.9840
vn -0.6958 -0.1779 0.6958
vn -0.9840 -0.1779 0.0000
vn -0.6958 -0.1779 -0.6958
vn 0.0000 -0.1779 -0.9840
vn 0.6958 -0.1779 -0.6958
vn 0.9840 -0.1779 0.0000
usemtl coffee_maker_gray
s 1
f 100//1 12//2 4//3 94//4
f 104//5 73//6 8//7 95//5
f 98//8 16//9 6//10 96//11
f 101//12 62//13 2//14 93//15
f 83//16 13//17 5//18 74//19
f 64//20 11//21 2//14 62//13
f 60//22 4//3 12//2 63//20
f 80//23 7//24 14//17 82//16
f 123//16 109//17 13//17 83//16
f 95//5 8//7 15//9 97//8
f 125//8 110//9 16//9 98//8
f 93//15 2//14 11//21 99//25
f 17//26 18//15 29//25 30//27
f 113//8 114//8 27//8 28//8
f 22//5 21//5 25//8 26//8
f 67//12 68//12 18//15 17//26
f 28//8 27//8 23//11 24//11
f 77//5 78//5 21//5 22//5
f 32//28 31//1 19//4 20//29
f 9//30 39//31 33//32 3//33
f 80//23 79//34 34//5 7//24
f 13//17 37//8 35//11 5//18
f 61//19 72//12 40//35 1//36
f 7//24 34//5 36//8 14//17
f 109//17 115//8 37//8 13//17
f 1//36 40//35 38//37 10//38
f 39//31 38//37 50//39 49//40
f 74//19 86//12 72//12 61//19
f 3//33 33//32 71//34 59//23
f 20//29 19//4 70//41 69//41
f 84//12 85//12 68//12 67//12
f 107//42 120//16 66//16 10//38
f 3//33 59//23 65//16 9//30
f 73//6 60//22 63//20 75//20
f 76//20 64//20 62//13 81//13
f 10//38 66//16 61//19 1//36
f 103//12 81//13 62//13 101//12
f 94//4 4//3 60//22 102//41
f 96//11 6//10 81//13 103//12
f 16//9 76//20 81//13 6//10
f 8//7 73//6 75//20 15//9
f 24//11 23//11 85//12 84//12
f 5//18 35//11 86//12 74//19
f 71//34 69//41 77//5 79//34
f 120//16 123//16 83//16 66//16
f 59//23 80//23 82//16 65//16
f 66//16 83//16 74//19 61//19
f 23//11 96//11 103//12 85//12
f 19//4 94//4 102//41 70//41
f 85//12 103//12 101//12 68//12
f 18//15 93//15 99//25 29//25
f 114//8 125//8 98//8 27//8
f 21//5 95//5 97//8 25//8
f 68//12 101//12 93//15 18//15
f 27//8 98//8 96//11 23//11
f 78//5 104//5 95//5 21//5
f 31//1 100//1 94//4 19//4
f 136//8 144//8 125//8 114//8
f 140//16 143//16 123//16 120//16
f 133//42 140//16 120//16 107//42
f 127//17 137//8 115//8 109//17
f 135//8 136//8 114//8 113//8
f 144//8 134//9 110//9 125//8
f 143//16 127//17 109//17 123//16
f 82//16 14//17 127//17 143//16
f 97//8 15//9 134//9 144//8
f 26//8 25//8 136//8 135//8
f 14//17 36//8 137//8 127//17
f 9//30 65//16 140//16 133//42
f 65//16 82//16 143//16 140//16
f 25//8 97//8 144//8 136//8
f 112//43 124//43 132//43 129//43
f 111//44 112//43 129//43 128//44
f 77//5 69//41 145//45 146//18
f 149//18 151//24 152//7 150//10
f 154//45 153//46 156//47 155//48
f 150//10 152//7 156//47 153//46
f 149//18 150//10 153//46 154//45
f 152//7 151//24 155//48 156//47
f 151//24 149//18 154//45 155//48
usemtl coffee_maker_ss
f 53//20 52//49 45//50 44//51
f 52//49 51//23 46//52 45//50
f 115//8 113//8 28//8 37//8
f 34//5 22//5 26//8 36//8
f 72//12 67//12 17//26 40//35
f 37//8 28//8 24//11 35//11
f 79//34 77//5 22//5 34//5
f 49//40 50//39 47//53 117//54 131//54 48//55
f 131//54 130//56 44//51 48//55
f 41//57 42//58 43//59 47//53
f 48//55 44//51 45//50 46//52
f 50//39 54//19 41//57 47//53
f 54//19 55//13 42//58 41//57
f 51//23 49//40 48//55 46//52
f 55//13 56//20 43//59 42//58
f 138//20 53//20 44//51 130//56
f 17//26 30//27 56//20 55//13
f 33//32 39//31 49//40 51//23
f 40//35 17//26 55//13 54//19
f 38//37 40//35 54//19 50//39
f 20//29 33//32 51//23 52//49
f 32//28 20//29 52//49 53//20
f 33//32 20//29 69//41 71//34
f 86//12 84//12 67//12 72//12
f 35//11 24//11 84//12 86//12
f 88//41 91//5 147//24 148//48
f 56//20 118//20 116//56 43//59
f 47//53 43//59 116//56 117//54
f 137//8 135//8 113//8 115//8
f 36//8 26//8 135//8 137//8
f 118//20 138//20 130//56 116//56
f 117//54 116//56 130//56 131//54
f 146//18 145//45 148//48 147//24
f 91//5 77//5 146//18 147//24
f 69//41 88//41 148//48 145//45
f 161//60 160//61 185//62 184//63
f 161//60 177//64 176//65 160//61
f 163//66 162//67 183//68 182//69
f 162//67 178//70 177//64 161//60
f 157//71 164//72 181//73 188//74
f 163//66 179//75 178//70 162//67
f 158//76 157//71 188//74 187//77
f 164//72 180//78 179//75 163//66
f 160//61 159//79 186//80 185//62
f 157//71 173//81 180//78 164//72
f 158//76 174//82 173//81 157//71
f 162//67 161//60 184//63 183//68
f 164//72 163//66 182//69 181//73
f 159//79 175//83 174//82 158//76
f 159//79 158//76 187//77 186//80
f 160//61 176//65 175//83 159//79
f 186//80 187//77 166//84 167//85
f 188//74 181//73 172//86 165//87
f 187//77 188//74 165//87 166//84
f 181//73 182//69 171//88 172//86
f 185//62 186//80 167//85 168//89
f 184//63 185//62 168//89 169//90
f 183//68 184//63 169//90 170//91
f 182//69 183//68 170//91 171//88
f 170//91 169//90 193//92 194//93
f 168//89 167//85 191//94 192//95
f 166//84 165//87 189//96 190//97
f 165//87 172//86 196//98 189//96
f 171//88 170//91 194//93 195//99
f 169//90 168//89 192//95 193//92
f 167//85 166//84 190//97 191//94
f 172//86 171//88 195//99 196//98
f 190//97 189//96 197//71 198//76
f 189//96 196//98 204//72 197//71
f 195//99 194//93 202//67 203//66
f 193//92 192//95 200//61 201//60
f 191//94 190//97 198//76 199//79
f 196//98 195//99 203//66 204//72
f 194//93 193//92 201//60 202//67
f 192//95 191//94 199//79 200//61
f 198//76 197//71 204//72 203//66 202//67 201//60 200//61 199//79
f 174//82 175//83 176//65 177//64 178//70 179//75 180//78 173//81
f 209//60 208//61 233//62 232//63
f 209//60 225//64 224//65 208//61
f 211//66 210//67 231//68 230//69
f 210//67 226//70 225//64 209//60
f 205//71 212//72 229//73 236//74
f 211//66 227//75 226//70 210//67
f 206//76 205//71 236//74 235//77
f 212//72 228//78 227//75 211//66
f 208//61 207//79 234//80 233//62
f 205//71 221//81 228//78 212//72
f 206//76 222//82 221//81 205//71
f 210//67 209//60 232//63 231//68
f 212//72 211//66 230//69 229//73
f 207//79 223//83 222//82 206//76
f 207//79 206//76 235//77 234//80
f 208//61 224//65 223//83 207//79
f 234//80 235//77 214//84 215//85
f 236//74 229//73 220//86 213//87
f 235//77 236//74 213//87 214//84
f 229//73 230//69 219//88 220//86
f 233//62 234//80 215//85 216//89
f 232//63 233//62 216//89 217//90
f 231//68 232//63 217//90 218//91
f 230//69 231//68 218//91 219//88
f 218//91 217//90 241//92 242//93
f 216//89 215//85 239//94 240//95
f 214//84 213//87 237//96 238//97
f 213//87 220//86 244//98 237//96
f 219//88 218//91 242//93 243//99
f 217//90 216//89 240//95 241//92
f 215//85 214//84 238//97 239//94
f 220//86 219//88 243//99 244//98
f 238//97 237//96 245//71 246//76
f 237//96 244//98 252//72 245//71
f 243//99 242//93 250//67 251//66
f 241//92 240//95 248//61 249//60
f 239//94 238//97 246//76 247//79
f 244//98 243//99 251//66 252//72
f 242//93 241//92 249//60 250//67
f 240//95 239//94 247//79 248//61
f 246//76 245//71 252//72 251//66 250//67 249//60 248//61 247//79
f 222//82 223//83 224//65 225//64 226//70 227//75 228//78 221//81
usemtl coffee_maker_plastic
f 121//20 108//44 11//21 64//20
f 132//43 126//44 12//2 100//1
f 128//44 129//43 31//1 32//28
f 128//44 32//28 53//20 138//20
f 58//100 50//39 49//40 57//101 139//102 119//103
f 39//31 9//30 57//101 49//40
f 10//38 38//37 50//39 58//100
f 107//42 10//38 58//100 119//103
f 122//20 121//20 64//20 76//20
f 110//9 122//20 76//20 16//9
f 59//23 71//34 79//34 80//23
f 129//43 132//43 100//1 31//1
f 29//25 99//25 124//43 112//43
f 134//9 142//20 122//20 110//9
f 142//20 141//20 121//20 122//20
f 133//42 107//42 119//103 139//102
f 30//27 111//44 118//20 56//20
f 30//27 29//25 112//43 111//44
f 99//25 11//21 108//44 124//43
f 141//20 126//44 108//44 121//20
f 63//20 12//2 126//44 141//20
f 9//30 133//42 139//102 57//101
f 75//20 63//20 141//20 142//20
f 15//9 75//20 142//20 134//9
f 111//44 128//44 138//20 118//20
f 124//43 108//44 126//44 132//43
usemtl coffee_maker_transparent
f 60//22 73//6 90//7 89//47
f 78//5 77//5 91//5 92//5
f 88//41 87//41 92//5 91//5
f 105//41 89//47 90//7 106//5
f 104//5 78//5 92//5 106//5
f 69//41 70//41 87//41 88//41
f 102//41 60//22 89//47 105//41
f 70//41 102//41 105//41 87//41
f 73//6 104//5 106//5 90//7
f 87//41 105//41 106//5 92//5
usemtl bean_holder_top
f 261//104 269//71 276//72 268//105
f 267//106 275//66 274//67 266//107
f 265//108 273//60 272//61 264//109
f 263//110 271//79 270//76 262//111
f 268//105 276//72 275//66 267//106
f 266//107 274//67 273//60 265//108
f 264//109 272//61 271//79 263//110
f 262//111 270//76 269//71 261//104
f 272//61 280//65 279//83 271//79
f 270//76 278//82 277//81 269//71
f 269//71 277//81 284//78 276//72
f 275//66 283//75 282//70 274//67
f 273//60 281//64 280//65 272//61
f 271//79 279//83 278//82 270//76
f 276//72 284//78 283//75 275//66
f 274//67 282//70 281//64 273//60
f 278//82 279//83 280//65 281//64 282//70 283//75 284//78 277//81
f 309//104 317//71 324//72 316//105
f 315//106 323//66 322//67 314//107
f 313//108 321//60 320//61 312//109
f 311//110 319//79 318//76 310//111
f 316//105 324//72 323//66 315//106
f 314//107 322//67 321//60 313//108
f 312//109 320//61 319//79 311//110
f 310//111 318//76 317//71 309//104
f 320//61 328//65 327//83 319//79
f 318//76 326//82 325//81 317//71
f 317//71 325//81 332//78 324//72
f 323//66 331//75 330//70 322//67
f 321//60 329//64 328//65 320//61
f 319//79 327//83 326//82 318//76
f 324//72 332//78 331//75 323//66
f 322//67 330//70 329//64 321//60
f 326//82 327//83 328//65 329//64 330//70 331//75 332//78 325//81
usemtl bean_holder_glass
f 258//112 266//107 265//108 257//113
f 256//114 264//109 263//110 255//115
f 254//116 262//111 261//104 253//117
f 253//117 261//104 268//105 260//118
f 259//119 267//106 266//107 258//112
f 257//113 265//108 264//109 256//114
f 255//115 263//110 262//111 254//116
f 260//118 268//105 267//106 259//119
f 306//112 314//107 313//108 305//113
f 304//114 312//109 311//110 303//115
f 302//116 310//111 309//104 301//117
f 301//117 309//104 316//105 308//118
f 307//119 315//106 314//107 306//112
f 305//113 313//108 312//109 304//114
f 303//115 311//110 310//111 302//116
f 308//118 316//105 315//106 307//119
usemtl coffee_beans
f 290//112 298//112 297//113 289//113
f 288//114 296//114 295//115 287//115
f 286//116 294//116 293//117 285//117
f 285//117 293//117 300//118 292//118
f 291//119 299//119 298//112 290//112
f 289//113 297//113 296//114 288//114
f 287//115 295//115 294//116 286//116
f 292//118 300//118 299//119 291//119
f 338//112 346//112 345//113 337//113
f 336//114 344//114 343//115 335//115
f 334//116 342//116 341//117 333//117
f 333//117 341//117 348//118 340//118
f 339//119 347//119 346//112 338//112
f 337//113 345//113 344//114 336//114
f 335//115 343//115 342//116 334//116
f 340//118 348//118 347//119 339//119
